PathFileType	4	(X/Y/Z)	C:/Users/beibeiliu/ov580/test_trc/User3\sequence.34_training_dense_left.trc
DataRate	CameraRate	NumFrames	NumMarkers	Units	OrigDataRate	OrigDataStartFrame	OrigNumFrames
120	120	19	19	mm	120	94	250
Frame#	Time	ThumbCMC			ThumbMCP			ThumbIP			ThumbTip			IndexMCP			IndexPIP			IndexTip			MiddleMCP			MiddlePIP			MiddleTip			RingMCP			RingPIP			RingTip			PinkyMCP			PinkyPIP			PinkyTip			BackHand1			BackHand2			BackHand3	
		X0	Y0	Z0	X1	Y1	Z1	X2	Y2	Z2	X3	Y3	Z3	X4	Y4	Z4	X5	Y5	Z5	X6	Y6	Z6	X7	Y7	Z7	X8	Y8	Z8	X9	Y9	Z9	X10	Y10	Z10	X11	Y11	Z11	X12	Y12	Z12	X13	Y13	Z13	X14	Y14	Z14	X15	Y15	Z15	X16	Y16	Z16	X17	Y17	Z17	X18	Y18	Z18	
93	0.775	-181.203	-10.1628	26.3776	-159.252	9.45342	4.49078	-135.434	16.0581	-8.87078	-108.76	9.50191	-13.2111	-150.726	-26.7907	-42.1689	-128.201	-9.81362	-61.7803	-113.536	17.0959	-44.6635	-121.001	-21.382	-32.0665	-109.327	2.28449	-16.7007	-133.281	-12.8753	11.4429	-107.435	-27.4525	-9.9609	-105.392	-8.07306	9.16304	-135.27	-17.7923	25.1284	-105.195	-36.4869	3.2694	-106.285	-15.2089	22.0237	-130.093	-31.0489	36.478	-150.968	-65.864	10.8261	-165.191	-67.8422	38.611	-180.656	-49.1462	14.9675	
94	0.783333	-181.546	-14.3461	25.9163	-162.524	11.7315	3.94919	-134.026	17.478	-13.1418	-111.23	9.31963	-11.6766	-148.788	-27.5741	-45.922	-128.515	-16.5246	-65.0304	-112.519	8.95711	-64.4441	-121.309	-19.6478	-32.1662	-112.253	6.1454	-14.4402	-134.725	-12.9359	13.5704	-108.724	-25.8787	-9.64759	-107.418	-3.96848	8.711	-134.802	-19.1911	28.3222	-104.427	-33.586	5.19501	-102.183	-15.0248	24.6545	-129.135	-27.9381	40.313	-148.465	-63.9894	13.0133	-162.805	-71.0839	39.0685	-177.04	-51.3535	14.7968	
95	0.791667	-182.425	-15.8488	24.2007	-164.998	9.24929	5.0073	-136.42	13.1913	-12.2838	-111.346	13.0105	-13.3953	-147.124	-31.7687	-46.5678	-128.96	-21.6356	-67.8218	-109.595	0.598237	-76.3161	-117.805	-22.2196	-29.291	-110.794	5.23993	-16.688	-133.938	-11.1265	14.3305	-107.272	-25.9118	-7.02587	-106.374	-4.78203	10.0359	-132.228	-15.8068	29.0321	-101.192	-36.3512	8.77179	-107.679	-12.1853	27.7055	-131.228	-25.5971	38.4432	-143.864	-67.865	11.976	-161.828	-69.6563	40.4878	-180.338	-51.7058	11.3426	
96	0.8	-183.023	-16.8654	22.0675	-163.721	4.13162	2.61512	-136.183	15.7784	-15.4674	-111.676	9.22961	-13.9449	-148.861	-33.5461	-44.1737	-135.787	-24.5429	-70.3858	-115.236	-10.1393	-86.1615	-120.637	-25.096	-26.7078	-111.042	3.93879	-12.8838	-134.474	-7.51797	14.7448	-110.538	-25.1444	-9.13019	-110.331	-1.93893	11.4132	-134.382	-15.7745	29.0562	-102.684	-31.5183	7.41217	-109.373	-11.3621	25.1502	-129.186	-25.9263	40.9086	-142.801	-68.3915	14.091	-158.931	-74.6395	39.8031	-180.617	-52.1731	14.4938	
97	0.808333	-183.549	-18.678	23.0051	-165.804	4.47541	3.1511	-140.596	12.637	-11.1278	-110.952	9.10991	-15.1767	-151.759	-34.5246	-42.6631	-137.003	-26.0795	-71.1405	-121.237	-15.204	-90.3691	-119.218	-25.727	-26.1161	-113.526	5.27648	-12.6905	-137.929	-7.07374	14.6361	-110.41	-26.0704	-8.38776	-108.227	-3.741	12.0778	-134.515	-15.4913	30.3402	-102.695	-32.5042	8.22934	-110.808	-9.83113	24.3473	-132.432	-24.9809	41.1016	-145.527	-68.4038	12.7869	-160.088	-73.356	44.6382	-176.35	-55.1047	12.712	
98	0.816667	-187.419	-18.6732	21.7304	-169.092	6.64465	2.22023	-139.91	13.8986	-15.0353	-115.319	9.08327	-13.729	-148.071	-34.8737	-41.5732	-136.174	-25.7758	-68.9785	-124.03	-18.3709	-88.2879	-119.558	-24.2035	-26.3288	-113.413	5.11122	-16.5331	-138.302	-8.53169	15.6185	-108.886	-25.7816	-6.29623	-107.277	-3.66037	11.4885	-133.895	-12.4506	29.6646	-103.103	-31.9149	9.90983	-110.782	-9.58666	24.2416	-133.342	-24.391	41.9661	-142.326	-67.986	14.4846	-158.459	-73.9978	45.3515	-179.573	-54.7111	16.0258	
99	0.825	-183.372	-21.7383	20.7027	-167.859	2.96032	1.06926	-144.232	15.1967	-13.2247	-117.407	13.5389	-13.6865	-145.342	-34.1198	-43.3169	-136.84	-26.8275	-64.7595	-123.107	-17.4568	-87.2965	-119.094	-24.7839	-25.16	-114.739	6.65661	-12.3591	-139.595	-8.2721	16.3668	-107.171	-23.7883	-4.6647	-110.776	-0.703947	11.653	-136.834	-12.2599	28.905	-104.342	-33.4114	10.2697	-108.595	-9.18039	24.9008	-130.961	-21.5907	40.1606	-140.841	-70.3914	17.087	-157.552	-74.1046	42.3444	-177.163	-59.6095	16.8018	
100	0.833333	-186.462	-22.6368	26.1237	-170.571	3.7048	1.3845	-147.121	14.8206	-12.1008	-119.437	15.7382	-15.1277	-147.206	-32.7874	-41.1513	-136.25	-24.9511	-62.7173	-121.099	-16.0387	-86.5705	-116.748	-20.4626	-25.824	-113.398	6.98675	-12.4471	-140.578	-6.50173	16.39	-109.918	-25.5326	-4.827	-111.489	-0.0198232	11.9009	-137.881	-15.009	31.4605	-100.611	-30.6756	13.6898	-110.257	-8.09001	25.8531	-132.474	-21.8469	42.5464	-139.893	-69.4801	16.8157	-160.309	-73.89	45.0321	-177.254	-56.5217	15.3801	
101	0.841667	-185.88	-22.8773	20.413	-171.502	-0.487383	4.35494	-147.195	10.9991	-10.8552	-121.846	13.8225	-14.1558	-147.143	-32.1506	-41.9015	-137.701	-23.123	-62.7513	-120.014	-14.6955	-86.7569	-120.067	-22.9251	-24.3474	-114.086	7.11351	-8.53587	-135.583	-6.61311	17.9896	-109.867	-23.2816	-4.81688	-112.767	-0.307017	17.7417	-137.554	-15.1234	32.1512	-101.19	-30.0367	13.5761	-110.628	-8.1643	25.6162	-133.113	-24.0667	44.1181	-140.7	-70.1436	16.4663	-155.073	-74.5473	42.1888	-175.999	-58.7113	11.2298	
102	0.85	-187.458	-24.7057	19.818	-172.247	-0.575528	-0.000811137	-148.881	11.3507	-11.5508	-122.195	13.5962	-13.5336	-147.263	-32.1926	-45.2467	-137.262	-23.103	-65.2887	-122.512	-15.5242	-83.3688	-117.034	-21.3631	-24.7141	-117.183	9.32841	-12.1913	-138.067	-6.1304	17.9311	-108.392	-24.1218	-2.05717	-115.025	0.553455	16.0835	-137.911	-16.7885	32.8922	-104.099	-30.878	13.1359	-114.223	-7.72427	26.8827	-133.243	-25.1522	44.7225	-138.109	-70.1313	16.3562	-157.272	-74.8835	39.7405	-173.018	-61.2454	12.5039	
103	0.858333	-184.988	-27.4533	22.2548	-173.895	-3.61182	2.75134	-151.032	12.6487	-12.3063	-123.047	14.1757	-14.5029	-145.131	-34.2823	-42.6233	-134.832	-24.349	-65.1084	-122.752	-14.4403	-86.0801	-118.54	-21.3258	-24.5876	-116.283	8.28922	-9.08446	-138.778	-4.48673	16.349	-110.882	-22.418	-4.15911	-115.159	1.16765	14.5837	-139.65	-17.5929	31.3119	-103.129	-28.2885	12.7048	-115.197	-7.1442	27.1533	-136.453	-24.6277	43.7118	-137.457	-69.0845	16.2756	-155.582	-76.1232	40.0285	-172.059	-61.7403	13.4002	
104	0.866667	-187.485	-28.2101	24.1008	-172.074	-3.89368	2.86156	-149.889	13.0678	-11.5176	-120.754	14.0659	-14.6146	-146.569	-34.128	-42.6398	-133.483	-24.5978	-65.2904	-120.026	-16.2635	-86.2298	-117.882	-22.3661	-23.5316	-115.884	7.78634	-11.2869	-141.347	-9.29767	16.6831	-108.357	-20.7279	-3.68451	-113.375	1.25789	12.9652	-139.997	-15.2538	30.2916	-104.589	-31.9028	13.9362	-113.6	-7.39123	26.7872	-133.93	-22.1719	45.6525	-137.172	-71.6979	16.3636	-156.377	-80.7234	44.7868	-176.39	-60.3929	14.4456	
105	0.875	-185.567	-28.1544	21.6686	-172.139	-1.83894	5.57313	-146.607	10.2103	-8.16267	-125.277	15.7171	-9.95218	-149.381	-34.0041	-42.2369	-135.811	-27.9824	-61.9293	-123.407	-18.2738	-87.4893	-122.742	-22.9064	-27.2609	-115.612	6.5691	-15.9008	-140.927	-5.63245	14.4978	-111.988	-26.8164	-4.10867	-115.796	2.01562	13.3668	-141.045	-15.4382	31.2222	-102.589	-30.4259	15.5058	-111.336	-7.10368	28.0447	-135.188	-18.3554	41.4207	-142.745	-69.8525	15.6677	-160.24	-78.9866	42.6852	-172.176	-60.9937	13.0692	
106	0.883333	-189.353	-24.2795	21.5858	-172.357	3.10227	7.62879	-143.677	14.1505	-5.55444	-115.537	13.4229	-5.77039	-147.648	-34.8948	-44.1999	-137.02	-28.7341	-65.2408	-123.537	-20.8375	-85.2953	-118.575	-24.431	-29.7765	-113.06	3.92768	-20.2976	-135.321	-4.35695	13.1138	-111.873	-26.5424	-5.03677	-110.53	-0.621366	11.9666	-135.124	-11.6553	31.7865	-104.729	-27.3531	12.8227	-109.632	-6.90456	29.9441	-135.701	-20.6799	46.2984	-139.656	-69.2714	16.5015	-160.497	-78.3158	44.0053	-178.242	-59.8541	13.2277	
107	0.891667	-186.747	-24.9313	24.2557	-164.743	1.7249	6.64022	-140.445	13.0623	-1.36493	-112.269	12.5411	-1.87978	-149.744	-35.7372	-41.073	-135.99	-30.4535	-63.7691	-120.743	-22.9412	-84.1733	-117.231	-28.8344	-31.4284	-109.011	1.84971	-27.1255	-126.388	5.10975	4.40068	-108.463	-25.4147	-4.67701	-105.697	-0.065968	10.4394	-135.391	-6.72407	28.8276	-103.162	-28.5233	13.2875	-109.577	-6.23401	26.3002	-134.077	-15.1783	42.8899	-138.714	-69.9237	18.0505	-159.745	-77.2835	44.0441	-176.514	-61.7529	11.6433	
108	0.9	-185.832	-23.7112	23.676	-161.734	1.0128	10.1841	-135.759	14.6978	0.597142	-110.765	13.0317	3.27627	-148.826	-35.8605	-41.7224	-136.107	-30.6373	-64.6454	-123.391	-21.0415	-88.2797	-118.526	-34.8654	-35.3484	-103.37	-4.7038	-36.0779	-118.638	12.6234	-5.90946	-105.23	-24.6885	-7.16466	-102.939	-0.191267	6.17818	-131.553	-4.75617	26.2913	-102.246	-27.9491	14.3593	-108.995	-3.9152	28.4914	-132.507	-8.72898	42.0713	-141.04	-68.8573	16.7172	-159.202	-77.0132	41.0741	-173.758	-59.076	12.2657	
109	0.908333	-181.819	-22.5841	22.1195	-160.636	6.60327	10.6935	-132.072	15.2101	5.03614	-104.508	11.9314	5.76637	-144.95	-35.6159	-42.2976	-136.98	-29.7492	-62.9912	-125.457	-21.4564	-84.3215	-120.503	-41.3481	-31.4211	-98.9727	-15.3058	-44.9403	-99.8079	12.5784	-22.1102	-105.711	-29.4197	-9.30377	-101.959	-0.777073	2.56597	-123.474	-0.764958	24.0927	-99.5482	-28.2929	14.4139	-108.621	-3.62553	23.5581	-130.445	-6.5227	43.9298	-141.482	-69.073	20.8534	-161.029	-77.4767	43.0908	-176.833	-60.2424	13.7159	
110	0.916667	-184.849	-20.3218	25.077	-156.219	8.15492	11.9943	-128.117	15.914	6.62227	-104.248	8.99267	9.47835	-146.625	-35.296	-41.4492	-132.983	-28.4807	-64.8948	-124.684	-21.0642	-83.7733	-119.97	-43.6997	-34.4252	-96.8737	-24.1874	-48.4391	-88.4259	13.0162	-37.0237	-106.98	-33.9393	-12.0416	-96.2391	-5.93178	-5.31861	-116.643	2.64071	20.505	-101.835	-31.1987	12.8687	-104.919	-6.1577	22.3004	-127.072	-5.2246	39.3129	-141.404	-69.4837	21.3721	-160.152	-77.0354	44.9339	-177.997	-59.5078	13.3327	
111	0.925	-183.358	-20.7859	24.9016	-159.901	5.83132	16.3976	-130.521	15.2072	7.95063	-104.055	9.47031	10.9047	-147.406	-34.8254	-41.3828	-134.795	-29.2725	-62.9071	-120.285	-18.9577	-84.2799	-122.852	-45.922	-36.0888	-100.091	-31.906	-50.7698	-80.8002	1.31693	-51.9841	-105.943	-37.1234	-11.4158	-92.156	-10.4394	-8.51707	-108.08	6.02367	15.5246	-100.412	-36.7134	14.9605	-100.128	-8.42157	22.8909	-126.892	-4.00218	44.2874	-141.833	-68.2522	16.1386	-162.253	-75.9445	43.1964	-176.456	-59.8146	16.6935	
